<svg width="496" height="496" viewBox="0 0 496 496" fill="none" xmlns="http://www.w3.org/2000/svg">
<path fill-rule="evenodd" clip-rule="evenodd" d="M247.632 495.264C384.395 495.264 495.264 384.395 495.264 247.632C495.264 110.869 384.395 0 247.632 0C110.869 0 0 110.869 0 247.632C0 384.395 110.869 495.264 247.632 495.264ZM287.867 356.966L288.609 297.879C288.748 286.797 297.772 277.886 308.855 277.886H334.28C350.517 277.886 360.149 259.734 351.048 246.288L263.229 116.555C255.15 104.619 237.541 104.707 229.582 116.723L143.644 246.457C134.728 259.916 144.379 277.886 160.524 277.886H186.341C197.523 277.886 206.588 286.951 206.588 298.133V356.331C206.588 362.801 210.233 368.858 216.121 371.541C223.829 375.053 233.556 378.478 246.28 378.475C260.398 378.473 270.493 375.227 278.846 371.398C284.427 368.84 287.79 363.104 287.867 356.966Z" fill="#F89393"/>
<style>
  path { fill: #F89393; }
  @media (prefers-color-scheme: dark) {
    path { fill: #E591C5; }
  }
</style>
</svg>
