<svg xmlns="http://www.w3.org/2000/svg" width="496" height="496" fill="none"><path fill="#fff" fill-rule="evenodd" d="M247.719 496c136.763 0 247.632-110.869 247.632-247.632S384.482.736 247.719.736C110.955.736.087 111.605.087 248.368S110.955 496 247.719 496Zm40.235-138.298.742-59.087c.139-11.082 9.163-19.993 20.246-19.993h25.425c16.237 0 25.869-18.152 16.768-31.597l-87.819-129.734c-8.079-11.935-25.688-11.847-33.647.168l-85.938 129.734c-8.916 13.459.735 31.429 16.88 31.429h25.817c11.182 0 20.247 9.065 20.247 20.248v58.197c0 6.471 3.645 12.527 9.533 15.21 7.708 3.513 17.435 6.938 30.159 6.935 14.118-.003 24.213-3.249 32.566-7.078 5.581-2.558 8.944-8.293 9.021-14.432Z" clip-rule="evenodd"/></svg>